<svg xmlns="http://www.w3.org/2000/svg" viewBox="0 0 128 128" width="128" height="128">
  <defs>
    <linearGradient id="grad1" x1="0%" y1="0%" x2="0%" y2="100%">
      <stop offset="0%" style="stop-color:#4f46e5;stop-opacity:1" />
      <stop offset="100%" style="stop-color:#3730a3;stop-opacity:1" />
    </linearGradient>
  </defs>

  <!-- Guitar Pick Shape Container -->
  <path d="M16,32 C16,12 32,4 64,4 C96,4 112,12 112,32 C112,64 88,96 64,124 C40,96 16,64 16,32 Z" fill="url(#grad1)"/>

  <!-- Ledger Stack & Musical Note -->
  <g fill="#ffffff">
    <!-- Musical Note (Eighth Note) sitting on top -->
    <path d="M86.5,30 L86.5,64.3 C84.3,63.1 81.7,62.5 79,62.5 C70.7,62.5 64,67.5 64,73.8 C64,80 70.7,85 79,85 C87.3,85 94,80 94,73.8 L94,41.2 L94,40.2 C94,34.7 89.5,30 84,30 L86.5,30 Z"/>
    
    <!-- The Ledger/Stack Blocks -->
    <!-- Top ledger entry blocks (under the note stem) -->
    <rect x="34" y="40" width="45" height="10" rx="4" ry="4" opacity="0.9"/>
    <rect x="34" y="55" width="50" height="10" rx="4" ry="4" opacity="0.95"/>
    <!-- Bottom main ledger block representing the foundation -->
    <rect x="34" y="85" width="55" height="12" rx="4" ry="4"/>
  </g>
</svg>
